<mxfile host="app.diagrams.net" modified="2021-10-27T04:57:14.359Z" agent="5.0 (Windows NT 10.0; Win64; x64) AppleWebKit/537.36 (KHTML, like Gecko) Chrome/93.0.4577.63 Safari/537.36" etag="pK1LwujjEgEkvT0AElDi" version="15.1.2" type="github">
  <diagram id="iFPqk2V4EiZ9pEt907NT" name="第 1 页">
    <mxGraphModel dx="1185" dy="662" grid="1" gridSize="10" guides="1" tooltips="1" connect="1" arrows="1" fold="1" page="1" pageScale="1" pageWidth="827" pageHeight="1169" math="0" shadow="0">
      <root>
        <mxCell id="0" />
        <mxCell id="1" parent="0" />
        <mxCell id="ENk7p5N732iysQaMyrkj-6" style="edgeStyle=orthogonalEdgeStyle;rounded=0;orthogonalLoop=1;jettySize=auto;html=1;exitX=0.5;exitY=0.5;exitDx=0;exitDy=0;exitPerimeter=0;entryX=0;entryY=0.5;entryDx=0;entryDy=0;" edge="1" parent="1" source="ENk7p5N732iysQaMyrkj-1" target="ENk7p5N732iysQaMyrkj-5">
          <mxGeometry relative="1" as="geometry" />
        </mxCell>
        <mxCell id="ENk7p5N732iysQaMyrkj-1" value="游客" style="shape=umlActor;verticalLabelPosition=bottom;verticalAlign=top;html=1;outlineConnect=0;" vertex="1" parent="1">
          <mxGeometry x="90" y="150" width="30" height="60" as="geometry" />
        </mxCell>
        <mxCell id="ENk7p5N732iysQaMyrkj-7" style="edgeStyle=orthogonalEdgeStyle;rounded=0;orthogonalLoop=1;jettySize=auto;html=1;exitX=0.5;exitY=0.5;exitDx=0;exitDy=0;exitPerimeter=0;" edge="1" parent="1" source="ENk7p5N732iysQaMyrkj-2" target="ENk7p5N732iysQaMyrkj-5">
          <mxGeometry relative="1" as="geometry" />
        </mxCell>
        <mxCell id="ENk7p5N732iysQaMyrkj-2" value="物业" style="shape=umlActor;verticalLabelPosition=bottom;verticalAlign=top;html=1;outlineConnect=0;" vertex="1" parent="1">
          <mxGeometry x="90" y="240" width="30" height="60" as="geometry" />
        </mxCell>
        <mxCell id="ENk7p5N732iysQaMyrkj-9" style="edgeStyle=orthogonalEdgeStyle;rounded=0;orthogonalLoop=1;jettySize=auto;html=1;exitX=0.5;exitY=0.5;exitDx=0;exitDy=0;exitPerimeter=0;entryX=0;entryY=0.5;entryDx=0;entryDy=0;" edge="1" parent="1" source="ENk7p5N732iysQaMyrkj-3" target="ENk7p5N732iysQaMyrkj-5">
          <mxGeometry relative="1" as="geometry" />
        </mxCell>
        <mxCell id="ENk7p5N732iysQaMyrkj-3" value="公司员工" style="shape=umlActor;verticalLabelPosition=bottom;verticalAlign=top;html=1;outlineConnect=0;" vertex="1" parent="1">
          <mxGeometry x="90" y="340" width="30" height="60" as="geometry" />
        </mxCell>
        <mxCell id="ENk7p5N732iysQaMyrkj-11" value="" style="edgeStyle=orthogonalEdgeStyle;rounded=0;orthogonalLoop=1;jettySize=auto;html=1;" edge="1" parent="1" source="ENk7p5N732iysQaMyrkj-5" target="ENk7p5N732iysQaMyrkj-10">
          <mxGeometry relative="1" as="geometry" />
        </mxCell>
        <mxCell id="ENk7p5N732iysQaMyrkj-5" value="微信授权" style="rounded=0;whiteSpace=wrap;html=1;" vertex="1" parent="1">
          <mxGeometry x="200" y="240" width="120" height="60" as="geometry" />
        </mxCell>
        <mxCell id="ENk7p5N732iysQaMyrkj-13" value="" style="edgeStyle=orthogonalEdgeStyle;rounded=0;orthogonalLoop=1;jettySize=auto;html=1;" edge="1" parent="1" source="ENk7p5N732iysQaMyrkj-10" target="ENk7p5N732iysQaMyrkj-12">
          <mxGeometry relative="1" as="geometry" />
        </mxCell>
        <mxCell id="ENk7p5N732iysQaMyrkj-21" value="" style="edgeStyle=orthogonalEdgeStyle;rounded=0;orthogonalLoop=1;jettySize=auto;html=1;dashed=1;" edge="1" parent="1" source="ENk7p5N732iysQaMyrkj-10" target="ENk7p5N732iysQaMyrkj-20">
          <mxGeometry relative="1" as="geometry" />
        </mxCell>
        <mxCell id="ENk7p5N732iysQaMyrkj-10" value="获取用户手机号" style="rounded=0;whiteSpace=wrap;html=1;" vertex="1" parent="1">
          <mxGeometry x="390" y="240" width="120" height="60" as="geometry" />
        </mxCell>
        <mxCell id="ENk7p5N732iysQaMyrkj-15" value="" style="edgeStyle=orthogonalEdgeStyle;rounded=0;orthogonalLoop=1;jettySize=auto;html=1;" edge="1" parent="1" source="ENk7p5N732iysQaMyrkj-12" target="ENk7p5N732iysQaMyrkj-14">
          <mxGeometry relative="1" as="geometry" />
        </mxCell>
        <mxCell id="ENk7p5N732iysQaMyrkj-17" value="" style="edgeStyle=orthogonalEdgeStyle;rounded=0;orthogonalLoop=1;jettySize=auto;html=1;" edge="1" parent="1" source="ENk7p5N732iysQaMyrkj-12" target="ENk7p5N732iysQaMyrkj-16">
          <mxGeometry relative="1" as="geometry" />
        </mxCell>
        <mxCell id="ENk7p5N732iysQaMyrkj-19" value="" style="edgeStyle=orthogonalEdgeStyle;rounded=0;orthogonalLoop=1;jettySize=auto;html=1;" edge="1" parent="1" source="ENk7p5N732iysQaMyrkj-12" target="ENk7p5N732iysQaMyrkj-18">
          <mxGeometry relative="1" as="geometry" />
        </mxCell>
        <mxCell id="ENk7p5N732iysQaMyrkj-12" value="通过类型判断&lt;br&gt;权限" style="rhombus;whiteSpace=wrap;html=1;rounded=0;" vertex="1" parent="1">
          <mxGeometry x="387.5" y="370" width="125" height="70" as="geometry" />
        </mxCell>
        <mxCell id="ENk7p5N732iysQaMyrkj-24" value="" style="edgeStyle=orthogonalEdgeStyle;rounded=0;orthogonalLoop=1;jettySize=auto;html=1;dashed=1;" edge="1" parent="1" source="ENk7p5N732iysQaMyrkj-14" target="ENk7p5N732iysQaMyrkj-23">
          <mxGeometry relative="1" as="geometry" />
        </mxCell>
        <mxCell id="ENk7p5N732iysQaMyrkj-14" value="物业" style="whiteSpace=wrap;html=1;rounded=0;" vertex="1" parent="1">
          <mxGeometry x="210" y="480" width="120" height="60" as="geometry" />
        </mxCell>
        <mxCell id="ENk7p5N732iysQaMyrkj-25" style="edgeStyle=orthogonalEdgeStyle;rounded=0;orthogonalLoop=1;jettySize=auto;html=1;dashed=1;" edge="1" parent="1" source="ENk7p5N732iysQaMyrkj-16" target="ENk7p5N732iysQaMyrkj-23">
          <mxGeometry relative="1" as="geometry" />
        </mxCell>
        <mxCell id="ENk7p5N732iysQaMyrkj-16" value="公司员工" style="whiteSpace=wrap;html=1;rounded=0;" vertex="1" parent="1">
          <mxGeometry x="390" y="480" width="120" height="60" as="geometry" />
        </mxCell>
        <mxCell id="ENk7p5N732iysQaMyrkj-27" value="" style="edgeStyle=orthogonalEdgeStyle;rounded=0;orthogonalLoop=1;jettySize=auto;html=1;dashed=1;" edge="1" parent="1" source="ENk7p5N732iysQaMyrkj-18" target="ENk7p5N732iysQaMyrkj-26">
          <mxGeometry relative="1" as="geometry" />
        </mxCell>
        <mxCell id="ENk7p5N732iysQaMyrkj-18" value="游客" style="whiteSpace=wrap;html=1;rounded=0;" vertex="1" parent="1">
          <mxGeometry x="570" y="480" width="120" height="60" as="geometry" />
        </mxCell>
        <mxCell id="ENk7p5N732iysQaMyrkj-22" style="edgeStyle=orthogonalEdgeStyle;rounded=0;orthogonalLoop=1;jettySize=auto;html=1;entryX=0.5;entryY=0;entryDx=0;entryDy=0;dashed=1;exitX=0.5;exitY=1;exitDx=0;exitDy=0;" edge="1" parent="1" source="ENk7p5N732iysQaMyrkj-20" target="ENk7p5N732iysQaMyrkj-12">
          <mxGeometry relative="1" as="geometry" />
        </mxCell>
        <mxCell id="ENk7p5N732iysQaMyrkj-20" value="通过手机号获取到用户的信息，&lt;br&gt;例如：员工和物业的手机号需要提前录入" style="whiteSpace=wrap;html=1;rounded=0;" vertex="1" parent="1">
          <mxGeometry x="610" y="240" width="150" height="60" as="geometry" />
        </mxCell>
        <mxCell id="ENk7p5N732iysQaMyrkj-23" value="页面" style="whiteSpace=wrap;html=1;rounded=0;" vertex="1" parent="1">
          <mxGeometry x="290" y="620" width="120" height="60" as="geometry" />
        </mxCell>
        <mxCell id="ENk7p5N732iysQaMyrkj-26" value="游客页面" style="whiteSpace=wrap;html=1;rounded=0;" vertex="1" parent="1">
          <mxGeometry x="570" y="620" width="120" height="60" as="geometry" />
        </mxCell>
      </root>
    </mxGraphModel>
  </diagram>
</mxfile>
